<svg width="278" height="50" viewBox="0 0 278 50" fill="none" xmlns="http://www.w3.org/2000/svg">
<path d="M48.4354 40.081C43.6589 40.081 39.7728 36.1953 39.7728 31.4194C39.7728 28.2058 41.5332 25.3981 44.1383 23.9027L47.5854 31.7885C47.7369 32.1375 48.0779 32.3457 48.4354 32.3457C48.5587 32.3457 48.684 32.3209 48.8045 32.2688C49.2736 32.0648 49.4889 31.5193 49.2848 31.0497L45.8513 23.1508C46.6675 22.8952 47.5357 22.7568 48.4354 22.7568C53.1302 22.7568 57.097 26.7236 57.097 31.4194C57.097 36.1953 53.2113 40.081 48.4354 40.081ZM30.0305 27.9436C29.4038 27.5224 28.65 27.2762 27.84 27.2762C27.5782 27.2762 27.3226 27.3024 27.0749 27.3512L24.6086 22.268L30.507 19.3069L39.9496 17.6108L30.0305 27.9436ZM56.1068 23.6851C54.0228 21.6226 51.2985 20.4866 48.4354 20.4866C47.2139 20.4866 46.0394 20.6878 44.9418 21.0588L42.635 15.751H42.6345L40.0744 9.86101C40.0744 9.86101 41.1368 9.39664 41.7607 9.20105C43.5834 8.62974 44.3921 8.7681 44.5821 8.94025C45.3405 9.62507 45.1824 10.3169 45.0905 10.5637C45.0793 10.5937 45.0614 10.6387 45.0572 10.6481C44.9615 10.8718 44.9521 11.1326 45.0549 11.3747C45.2542 11.8456 45.7978 12.0656 46.2688 11.8662C46.4663 11.7823 46.6187 11.6378 46.7158 11.4638C46.7158 11.4638 46.7336 11.4305 46.7378 11.4225C47.1023 10.6683 47.3589 8.95244 45.8246 7.56544C44.9507 6.77602 43.4404 6.73286 41.2062 7.43317C40.4164 7.68083 39.9224 7.87221 38.9679 8.39568C38.254 8.78687 37.8914 9.11005 37.7399 9.26672L40.4027 15.3588L22.6592 20.0114L21.0508 17.2468L20.8932 17.3359L18.0357 12.3109C18.3463 12.2237 18.6938 12.1275 19.0836 12.021C22.2413 11.1589 23.2198 11.0182 23.2301 10.5665C23.2474 9.79628 22.7685 9.79628 22.3173 9.79628H14.0094C13.6744 9.79628 13.3653 9.9764 13.2018 10.2686C13.0373 10.5599 13.0429 10.9169 13.2164 11.2034L14.0424 12.6223C14.2139 12.9057 14.5172 13.0684 14.8342 13.0684C15.2941 13.0684 15.6252 12.991 16.5544 12.7293L19.5907 18.0695L19.4359 18.1572C19.4359 18.1572 23.1935 24.9032 23.2854 25.0927C23.4261 25.3812 23.3877 25.6256 23.0931 25.7058C22.6897 25.8155 10.2264 30.5033 10.2264 30.5033C10.2264 30.5033 10.4352 31.7444 10.3514 32.3453H24.0697C24.5575 33.9659 26.0627 35.1502 27.84 35.1502C30.0108 35.1502 31.7772 33.3842 31.7772 31.213C31.7772 30.5765 31.6243 29.9747 31.3546 29.4418L41.9666 18.9354L43.2232 21.8107C39.8183 23.6649 37.5026 27.2766 37.5026 31.4194C37.5026 37.4472 42.4066 42.3517 48.4354 42.3517C54.4632 42.3517 59.3677 37.4472 59.3677 31.4194C59.3677 28.5135 58.2096 25.7667 56.1068 23.6851Z" fill="white"/>
<path d="M51.208 31.4245C51.208 32.9302 49.9875 34.1512 48.4818 34.1512C46.9761 34.1512 45.7552 32.9302 45.7552 31.4245C45.7552 29.9189 46.9761 28.6984 48.4818 28.6984C49.9875 28.6984 51.208 29.9189 51.208 31.4245Z" fill="white"/>
<path d="M31.3326 38.2221C31.1037 38.2221 30.8827 38.0974 30.7706 37.8802L28.4605 33.4115C28.3001 33.101 28.4216 32.7196 28.7316 32.5597C29.0417 32.3992 29.423 32.5207 29.583 32.8308L31.8931 37.3C32.0535 37.61 31.932 37.9914 31.622 38.1513C31.5296 38.1996 31.4301 38.2221 31.3326 38.2221Z" fill="white"/>
<path d="M33.6858 37.6644C33.6858 38.034 33.3866 38.3333 33.0169 38.3333H29.7214C29.3517 38.3333 29.0525 38.034 29.0525 37.6644C29.0525 37.2948 29.3517 36.995 29.7214 36.995H33.0169C33.3866 36.995 33.6858 37.2948 33.6858 37.6644Z" fill="white"/>
<path d="M29.7214 37.1438C29.4343 37.1438 29.2007 37.3774 29.2007 37.6644C29.2007 37.9515 29.4343 38.1846 29.7214 38.1846H33.017C33.304 38.1846 33.5376 37.9515 33.5376 37.6644C33.5376 37.3774 33.304 37.1438 33.017 37.1438H29.7214ZM33.017 38.482H29.7214C29.2706 38.482 28.9033 38.1152 28.9033 37.6644C28.9033 37.2137 29.2706 36.8464 29.7214 36.8464H33.017C33.4677 36.8464 33.8345 37.2137 33.8345 37.6644C33.8345 38.1152 33.4677 38.482 33.017 38.482Z" fill="white"/>
<path d="M32.4489 23.1494L29.8424 27.4023C29.8236 27.4324 29.7772 27.4169 29.7805 27.3822L30.0703 24.0551L28.3297 23.9538C28.2968 23.9519 28.2776 23.9158 28.2945 23.8877L30.9029 19.4903C30.9207 19.4598 30.9676 19.4748 30.9648 19.51L30.6745 22.9815L32.4142 23.0828C32.4471 23.0847 32.4663 23.1212 32.4489 23.1494ZM22.8989 21.4519L28.4305 31.4245C28.4305 31.4245 33.6403 25.2545 35.8355 22.6775C36.5377 21.8534 41.1326 20.42 41.1302 16.6018C41.1298 15.5296 21.7338 21.8079 22.8989 21.4519Z" fill="white"/>
<path d="M10.9327 22.6766C6.11191 22.6766 2.19002 26.5984 2.19002 31.4189C2.19002 36.2398 6.11191 40.1616 10.9327 40.1616C15.7534 40.1616 19.6756 36.2398 19.6756 31.4189C19.6756 26.68 15.6717 22.6766 10.9327 22.6766ZM10.9327 41.2583C5.5072 41.2583 1.09327 36.8445 1.09327 31.4189C1.09327 25.9933 5.5072 21.5795 10.9327 21.5795C13.5096 21.5795 15.9618 22.602 17.8373 24.4585C19.73 26.3319 20.7722 28.8039 20.7722 31.4189C20.7722 36.8445 16.3581 41.2583 10.9327 41.2583Z" fill="white"/>
<path d="M10.9327 22.3389C5.92602 22.3389 1.85278 26.4122 1.85278 31.4189C1.85278 36.4256 5.92602 40.4989 10.9327 40.4989C15.9393 40.4989 20.0123 36.4256 20.0123 31.4189C20.0123 26.4971 15.8546 22.3389 10.9327 22.3389ZM10.9327 42.3517C4.90428 42.3517 0 37.4472 0 31.4189C0 25.3906 4.90428 20.4861 10.9327 20.4861C13.7959 20.4861 16.5205 21.6222 18.6042 23.6851C20.7075 25.7667 21.8656 28.5131 21.8656 31.4189C21.8656 37.4472 16.961 42.3517 10.9327 42.3517Z" fill="white"/>
<path d="M13.6424 31.4189C13.6424 32.9157 12.4292 34.1287 10.9328 34.1287C9.43623 34.1287 8.22311 32.9157 8.22311 31.4189C8.22311 29.9226 9.43623 28.7092 10.9328 28.7092C12.4292 28.7092 13.6424 29.9226 13.6424 31.4189Z" fill="white"/>
<path d="M72.7338 36.1453L80.8636 14.9487H87.4134L95.5432 36.1453H89.092L87.3147 31.6361H80.9294L79.1849 36.1453H72.7338ZM81.7522 27.1927H86.4918L84.122 20.9719L81.7522 27.1927ZM100.553 36.1453L94.3979 20.5441H100.849L103.811 29.6941L106.774 20.5441H113.225L107.07 36.1453H100.553ZM118.924 36.4744C117.936 36.4744 117.015 36.2989 116.159 35.9478C115.325 35.5967 114.656 35.0481 114.151 34.3021C113.646 33.556 113.394 32.6125 113.394 31.4715C113.394 29.8258 113.943 28.5531 115.04 27.6535C116.137 26.7319 117.794 26.2711 120.01 26.2711H124.058V25.9749C124.058 25.3605 123.806 24.9106 123.301 24.6254C122.797 24.3401 121.908 24.1975 120.635 24.1975C118.836 24.1975 117.059 24.4718 115.303 25.0204V21.3011C116.093 20.9939 117.08 20.7415 118.265 20.5441C119.45 20.3246 120.657 20.2149 121.886 20.2149C124.365 20.2149 126.329 20.7196 127.777 21.729C129.226 22.7383 129.95 24.3401 129.95 26.5344V36.1453H124.552L124.256 34.8945C123.707 35.3773 122.994 35.7613 122.116 36.0465C121.261 36.3318 120.196 36.4744 118.924 36.4744ZM121.03 32.8539C121.732 32.8539 122.325 32.7332 122.807 32.4918C123.312 32.2504 123.729 31.9542 124.058 31.6031V29.6612H121.063C119.703 29.6612 119.022 30.1988 119.022 31.274C119.022 32.3272 119.692 32.8539 121.03 32.8539ZM139.375 36.4744C137.905 36.4744 136.621 36.233 135.524 35.7503C134.449 35.2456 133.604 34.4337 132.99 33.3147C132.397 32.1956 132.101 30.7035 132.101 28.8384C132.101 26.9294 132.441 25.3385 133.121 24.0658C133.802 22.7932 134.712 21.8387 135.853 21.2023C136.994 20.5441 138.234 20.2149 139.573 20.2149C140.297 20.2149 141.01 20.2917 141.712 20.4453C142.436 20.5989 143.061 20.8183 143.588 21.1036V13.9613H149.776V36.1453H144.411L144.115 34.9274C143.5 35.4102 142.809 35.7942 142.041 36.0794C141.295 36.3427 140.406 36.4744 139.375 36.4744ZM141.152 31.9981C142.096 31.9981 142.908 31.6799 143.588 31.0436V25.5141C142.974 24.9655 142.162 24.6912 141.152 24.6912C140.341 24.6912 139.682 25.0533 139.178 25.7774C138.673 26.5015 138.421 27.5328 138.421 28.8713C138.421 30.1878 138.64 31.0436 139.079 31.4386C139.518 31.8116 140.209 31.9981 141.152 31.9981ZM157.463 36.4744C156.475 36.4744 155.554 36.2989 154.698 35.9478C153.864 35.5967 153.195 35.0481 152.69 34.3021C152.185 33.556 151.933 32.6125 151.933 31.4715C151.933 29.8258 152.482 28.5531 153.579 27.6535C154.676 26.7319 156.332 26.2711 158.549 26.2711H162.597V25.9749C162.597 25.3605 162.345 24.9106 161.84 24.6254C161.335 24.3401 160.447 24.1975 159.174 24.1975C157.375 24.1975 155.597 24.4718 153.842 25.0204V21.3011C154.632 20.9939 155.619 20.7415 156.804 20.5441C157.989 20.3246 159.196 20.2149 160.425 20.2149C162.904 20.2149 164.868 20.7196 166.316 21.729C167.765 22.7383 168.489 24.3401 168.489 26.5344V36.1453H163.091L162.795 34.8945C162.246 35.3773 161.533 35.7613 160.655 36.0465C159.799 36.3318 158.735 36.4744 157.463 36.4744ZM159.569 32.8539C160.271 32.8539 160.864 32.7332 161.346 32.4918C161.851 32.2504 162.268 31.9542 162.597 31.6031V29.6612H159.602C158.241 29.6612 157.561 30.1988 157.561 31.274C157.561 32.3272 158.231 32.8539 159.569 32.8539ZM178.048 36.1453V14.9487H194.11V19.6883H184.236V23.1443H192.892V27.9497H184.236V31.4057H194.11V36.1453H178.048ZM195.422 29.1675V24.4279H208.752V29.1675H195.422ZM211.059 36.1453V14.9487H222.71C224.86 14.9487 226.495 15.4534 227.614 16.4627C228.733 17.4721 229.293 18.9203 229.293 20.8074C229.293 21.9045 229.084 22.8261 228.667 23.5721C228.272 24.3182 227.746 24.9106 227.088 25.3495C227.987 25.7006 228.7 26.2162 229.227 26.8964C229.776 27.5547 230.05 28.5421 230.05 29.8587C230.05 31.8555 229.435 33.4024 228.207 34.4996C226.978 35.5967 225.233 36.1453 222.973 36.1453H211.059ZM217.016 23.4076H221.031C222.545 23.4076 223.302 22.7273 223.302 21.3669C223.302 20.6867 223.116 20.171 222.743 19.8199C222.392 19.4689 221.767 19.2933 220.867 19.2933H217.016V23.4076ZM217.016 31.8335H221.295C222.129 31.8335 222.743 31.658 223.138 31.3069C223.533 30.9558 223.73 30.3744 223.73 29.5625C223.73 28.8823 223.533 28.3666 223.138 28.0155C222.743 27.6644 222.085 27.4889 221.163 27.4889H217.016V31.8335ZM232.973 18.4705V13.9942H239.655V18.4705H232.973ZM233.467 36.1453V25.0533H231.196L231.722 20.5441H239.655V36.1453H233.467ZM242.622 36.1453V13.9613H248.81V24.9216L253.155 20.5441H260.166L253.945 27.1268L260.528 36.1453H253.945L250.094 30.3524L248.81 31.6361V36.1453H242.622ZM269.116 36.4744C267.295 36.4744 265.682 36.1782 264.278 35.5857C262.896 34.9713 261.809 34.0607 261.02 32.8539C260.252 31.647 259.868 30.1549 259.868 28.3776C259.868 25.8981 260.57 23.9232 261.974 22.4531C263.378 20.961 265.474 20.2149 268.261 20.2149C270.806 20.2149 272.792 20.8622 274.218 22.1568C275.666 23.4515 276.39 25.2178 276.39 27.456V30.1878H265.562C265.847 31.0217 266.406 31.6141 267.24 31.9652C268.074 32.3163 269.204 32.4918 270.63 32.4918C271.53 32.4918 272.43 32.415 273.329 32.2614C274.251 32.0859 274.986 31.8884 275.535 31.669V35.3882C273.999 36.1123 271.859 36.4744 269.116 36.4744ZM265.562 26.8306H271.058V26.2711C271.058 25.6567 270.861 25.152 270.466 24.757C270.093 24.3621 269.424 24.1646 268.458 24.1646C267.383 24.1646 266.626 24.395 266.187 24.8558C265.77 25.2946 265.562 25.9529 265.562 26.8306Z" fill="white"/>
</svg>
